<?xml version="1.0" encoding="utf-8"?>
<!-- Generator: Adobe Illustrator 18.1.1, SVG Export Plug-In . SVG Version: 6.00 Build 0)  -->
<!DOCTYPE svg PUBLIC "-//W3C//DTD SVG 1.1//EN" "http://www.w3.org/Graphics/SVG/1.1/DTD/svg11.dtd">
<svg version="1.1" id="Layer_1" xmlns="http://www.w3.org/2000/svg" xmlns:xlink="http://www.w3.org/1999/xlink" x="0px" y="0px"
	 viewBox="0 0 86.4 86.4" enable-background="new 0 0 86.4 86.4" xml:space="preserve">
<g>
	<path fill="#F15A27" d="M47.303,16.499c6.814,0,13.096,2.216,18.221,5.932C60.038,13.588,50.27,7.679,39.097,7.679
		c-17.182,0-31.111,13.929-31.111,31.111c0,10.368,5.092,19.526,12.89,25.179c-2.951-4.757-4.684-10.349-4.684-16.359
		C16.192,30.428,30.121,16.499,47.303,16.499z"/>
	<path fill="#47BEA6" d="M65.524,22.431c2.951,4.757,4.684,10.349,4.684,16.359c0,17.182-13.929,31.111-31.111,31.111
		c-6.814,0-13.096-2.216-18.221-5.932c5.486,8.843,15.254,14.752,26.427,14.752c17.182,0,31.111-13.929,31.111-31.111
		C78.414,37.242,73.322,28.084,65.524,22.431z"/>
	<path fill="#242D3C" d="M70.208,38.79c0-6.01-1.733-11.602-4.684-16.359c-5.125-3.715-11.407-5.932-18.221-5.932
		c-17.182,0-31.111,13.929-31.111,31.111c0,6.01,1.733,11.602,4.684,16.359c5.125,3.715,11.407,5.932,18.221,5.932
		C56.279,69.901,70.208,55.972,70.208,38.79z"/>
</g>
</svg>
